<svg t="1580743109758" class="icon" viewBox="0 0 1024 1024" version="1.1" xmlns="http://www.w3.org/2000/svg" p-id="2695" width="200" height="200" fill="#ff5777">
    <path d="M746.152 927.833c-10.232 0-20.517-2.528-29.795-7.306L511.224 819.562l-206.936 101.19c-20.012 10.569-47.672 8.716-67.007-5.395-19.51-13.89-29.572-38.567-25.523-62.628l42.666-219.131L91.678 483.275c-17.876-17.432-24.229-43.288-16.642-66.283 7.364-23.16 27.155-40.026 51.553-43.68l225.875-40.982L453.71 128.544c11.017-22.092 33.11-35.809 57.567-35.809 24.34 0 46.943 14.11 57.512 35.98l101.19 203.503 226.497 39.802c23.832 3.538 43.623 20.29 51.1 43.678 7.53 22.878 1.178 48.74-16.193 65.661l-163.25 152.235 41.264 218.738c4.217 24.288-5.849 48.968-25.69 63.246-10.741 7.813-24.178 12.254-37.555 12.255M511.277 769.469z" p-id="2696"/>
</svg>
